<svg id="Layer_1" data-name="Layer 1" xmlns="http://www.w3.org/2000/svg" viewBox="0 0 1313.71 159.44"><title>webhost-icon</title><path d="M1137.72,598.75V541.93a44.54,44.54,0,0,0-1-10.54,13.29,13.29,0,0,0-3.48-6.49,13.12,13.12,0,0,0-6.78-3.2,57.47,57.47,0,0,0-10.72-.85h-55.88v77.9h-28V463.84h28v32.93h56.63q14.3,0,23.8,2.35t15.15,7.53a28.28,28.28,0,0,1,8,13.64,78.21,78.21,0,0,1,2.36,20.7v57.76Z" transform="translate(-303.14 -460.28)" style="fill:#2bb673"/><path d="M1226,598.75q-14.1,0-23.51-2.35t-15.06-7.53a28.19,28.19,0,0,1-8-13.55,77.14,77.14,0,0,1-2.35-20.6V541a78.24,78.24,0,0,1,2.35-20.7,28.2,28.2,0,0,1,8-13.64q5.65-5.17,15.06-7.53t23.51-2.35H1260q14.3,0,23.71,2.35t15,7.62a28.85,28.85,0,0,1,8,13.74,78.18,78.18,0,0,1,2.36,20.69v13.55a77.1,77.1,0,0,1-2.36,20.6,28.19,28.19,0,0,1-8,13.55q-5.64,5.18-15,7.53T1260,598.75Zm55.13-56.82a44.54,44.54,0,0,0-1-10.54,12.25,12.25,0,0,0-3.76-6.49,15.5,15.5,0,0,0-7.63-3.2,75.37,75.37,0,0,0-12.41-.85h-26.53a73.72,73.72,0,0,0-12.33.85,15.33,15.33,0,0,0-7.52,3.2,12.19,12.19,0,0,0-3.77,6.49,44.54,44.54,0,0,0-1,10.54v12a43.35,43.35,0,0,0,1,10.44,12.16,12.16,0,0,0,3.77,6.4,16,16,0,0,0,7.52,3.29,65.88,65.88,0,0,0,12.33.94h26.53a67.34,67.34,0,0,0,12.41-.94,16.21,16.21,0,0,0,7.63-3.29,12.21,12.21,0,0,0,3.76-6.4,43.35,43.35,0,0,0,1-10.44Z" transform="translate(-303.14 -460.28)" style="fill:#2bb673"/><path d="M1440.83,571.65a52.13,52.13,0,0,1-1.32,12.7,15.56,15.56,0,0,1-5.17,8.38,24.12,24.12,0,0,1-10.54,4.61,87.06,87.06,0,0,1-17.4,1.41h-87.68v-22h84.1c3.77,0,6.4-.62,7.91-1.88s2.26-3.63,2.26-7.15v-3.38c0-3.77-.73-6.12-2.17-7.06s-3.86-1.41-7.24-1.41h-57.2a47.73,47.73,0,0,1-14-1.69,18.31,18.31,0,0,1-8.37-5.08,17.75,17.75,0,0,1-4-8.38,58.49,58.49,0,0,1-1-11.76v-7.71a39.66,39.66,0,0,1,1.41-11.29,16.52,16.52,0,0,1,4.61-7.62,19.4,19.4,0,0,1,8.65-4.23,59.79,59.79,0,0,1,13.74-1.32h38.76V518h-32q-4.14,0-5.92,1.51c-1.2,1-1.79,2.82-1.79,5.45v4.71c0,2.88.56,4.83,1.69,5.83s3,1.5,5.46,1.5h55.31a66.18,66.18,0,0,1,16,1.6,21.35,21.35,0,0,1,9.78,5.08,18.22,18.22,0,0,1,4.89,9,60.1,60.1,0,0,1,1.32,13.65Z" transform="translate(-303.14 -460.28)" style="fill:#2bb673"/><path d="M1454.76,598.75V519.54h-14.3V496.77h14.3V468h28.59v28.79h32.18v22.77h-32.18v79.21Z" transform="translate(-303.14 -460.28)" style="fill:#2bb673"/><path d="M644,528.57l-30.29,62.84a18.93,18.93,0,0,1-6.12,7.43,16,16,0,0,1-9.5,2.73q-6.4,0-9.69-2.73a19.69,19.69,0,0,1-5.36-7.43l-40.83-94.64h28.41L600,565.44l29.16-61a24.83,24.83,0,0,1,5.93-7.8q3.28-2.73,9.5-2.73c4,0,7.15.84,9.41,2.54a19.89,19.89,0,0,1,5.83,8l27.66,61,30.86-68.67h27.84l-42.71,94.64a19.43,19.43,0,0,1-5.92,7.24,15.29,15.29,0,0,1-9.51,2.92,14.94,14.94,0,0,1-9.31-2.92,19.46,19.46,0,0,1-5.93-7.24Z" transform="translate(-303.14 -460.28)" style="fill:#000"/><path d="M875.82,558.11V524.62a36.06,36.06,0,0,0-1.69-11.2,19.58,19.58,0,0,0-5.93-8.84,29.76,29.76,0,0,0-11.48-5.74,67.27,67.27,0,0,0-18.16-2.07H789.27q-13.54,0-22.39,2.07t-14.21,6.68a24.48,24.48,0,0,0-7.52,12.23A69.15,69.15,0,0,0,743,536.47V560q0,20.32,10.35,29.54T788,598.75h33.12V577.49H788a49.06,49.06,0,0,1-8.18-.57,11.15,11.15,0,0,1-5.27-2.16,8.21,8.21,0,0,1-2.73-4.42,30.35,30.35,0,0,1-.75-7.53V534.59a31.76,31.76,0,0,1,.94-8.66,9.37,9.37,0,0,1,3.1-4.89,11.56,11.56,0,0,1,5.74-2.16,70.19,70.19,0,0,1,8.85-.47h46.66q6.39,0,8.94,1.69t2.53,6.77V540H786.37v18.07Z" transform="translate(-303.14 -460.28)" style="fill:#000"/><path d="M1017.59,520.29a28.29,28.29,0,0,0-8-13.64q-5.64-5.17-15.05-7.53t-23.71-2.35h-41v24.08h40.1a58.81,58.81,0,0,1,10.92.85,13.62,13.62,0,0,1,6.77,3.1,12.12,12.12,0,0,1,3.38,6.4,49.78,49.78,0,0,1,.94,10.73v12a47.33,47.33,0,0,1-.94,10.44,12.6,12.6,0,0,1-3.38,6.4,13.76,13.76,0,0,1-6.77,3.29,52.57,52.57,0,0,1-10.92.94H936a51,51,0,0,1-10.81-.94,13.7,13.7,0,0,1-6.68-3.29,12.61,12.61,0,0,1-3.39-6.4,46.21,46.21,0,0,1-.94-10.25V520.85h.24V496.77h-.24V463.84h-28v90.88a77.1,77.1,0,0,0,2.36,20.6,28.19,28.19,0,0,0,8,13.55q5.65,5.18,15.06,7.53t23.51,2.35h35.75q14.31,0,23.71-2.35t15.05-7.53a28.28,28.28,0,0,0,8-13.55,77.55,77.55,0,0,0,2.35-20.6V541A78.66,78.66,0,0,0,1017.59,520.29Z" transform="translate(-303.14 -460.28)" style="fill:#000"/><path d="M517.29,530.52c0-2.06-1.06-3.21-3.21-3.42-4.48-.43-7.6-1.54-10.14-3.6A16.43,16.43,0,0,1,498,511.86c-.32-3.17-.52-4.28-.67-5.09a31.85,31.85,0,0,1-.42-5.54c-.06-1.51-.09-3-.11-4.52-.09-5.26-.18-10.71-1.58-16a24.3,24.3,0,0,0-13.42-16.22c-5.91-2.88-12.46-4.17-21.24-4.17l-2,0h-.3c-6.88.14-7.52.8-7.52,7.88,0,1.23,0,2.47,0,3.71,0,3.14,0,6.38,0,9.55-.05,2.65,1.16,3.93,3.81,4a76,76,0,0,1,9.81,1,5.73,5.73,0,0,1,4.8,5.14c.27,2.08.37,4.25.46,6.34,0,.63.05,1.25.09,1.87a17.22,17.22,0,0,0,.37,3.63,15.51,15.51,0,0,1,.35,3,75.38,75.38,0,0,0,.85,7.54c.13.82.26,1.73.41,2.82a33.14,33.14,0,0,0,13.51,22.56l.5.35-1.65,1.59a70.28,70.28,0,0,0-6,6.28,28.93,28.93,0,0,0-6.28,15.68c-.41,4.33-.71,6.2-1,8a89.51,89.51,0,0,0-1,8.91,18.28,18.28,0,0,1-1,5.39,6.75,6.75,0,0,1-4.66,4l-36.8-77.08V511h-33l-37.62,78.7a6.88,6.88,0,0,1-4.93-4.11,18.61,18.61,0,0,1-1-5.39,87.42,87.42,0,0,0-1-8.91c-.3-1.81-.61-3.68-1-8a29,29,0,0,0-6.27-15.68,70.39,70.39,0,0,0-6-6.28l-1.65-1.59.51-.35a33.13,33.13,0,0,0,13.5-22.56c.15-1.09.29-2,.41-2.81.38-2.53.63-4.19.86-7.55a16.37,16.37,0,0,1,.34-3,17.34,17.34,0,0,0,.38-3.62l.09-1.86c.09-2.1.18-4.27.45-6.35a5.74,5.74,0,0,1,4.8-5.14,76.14,76.14,0,0,1,9.81-1c2.66-.1,3.87-1.38,3.81-4-.06-3.17-.05-6.4,0-9.53,0-1.25,0-2.49,0-3.73,0-7.08-.63-7.74-7.52-7.88h-.3l-2,0c-8.78,0-15.33,1.29-21.24,4.17a24.27,24.27,0,0,0-13.42,16.22c-1.4,5.33-1.49,10.78-1.58,16,0,1.51-.06,3-.11,4.52a33.06,33.06,0,0,1-.42,5.54c-.15.81-.36,1.92-.67,5.09a16.41,16.41,0,0,1-5.95,11.64c-2.53,2.06-5.66,3.17-10.14,3.6-2.14.21-3.22,1.36-3.21,3.42.06,6,.06,12.34,0,18.85,0,2.72,1.78,3.25,3.13,3.41,9.8,1.17,15,6.44,16.18,16.59.29,2.36.46,3.49.57,4.21a27.72,27.72,0,0,1,.29,4.39l.12,3.41c.22,6.8.45,13.85,3,20.6,3,7.87,8.73,13.11,17.05,15.58l2.17.56a70.34,70.34,0,0,0,15.77,1.58v0h9.87l35.46-75.2H414l35.46,75.2h7.14c6.92,0,13.67-.2,20.31-2.16,8.31-2.47,14.05-7.71,17-15.58,2.58-6.75,2.81-13.79,3-20.6l.12-3.41a27.72,27.72,0,0,1,.29-4.39c.11-.72.28-1.85.56-4.21,1.24-10.15,6.38-15.42,16.19-16.59,1.35-.16,3.14-.69,3.12-3.41C517.24,542.9,517.24,536.56,517.29,530.52Z" transform="translate(-303.14 -460.28)" style="fill:#2bb673"/><path d="M351.73,585.62a18.61,18.61,0,0,1-1-5.39,87.42,87.42,0,0,0-1-8.91c-.3-1.81-.61-3.68-1-8a29,29,0,0,0-6.27-15.68,70.39,70.39,0,0,0-6-6.28l-1.65-1.59.51-.35a33.13,33.13,0,0,0,13.5-22.56c.15-1.09.29-2,.41-2.81.38-2.53.63-4.19.86-7.55a16.37,16.37,0,0,1,.34-3,17.34,17.34,0,0,0,.38-3.62l.09-1.86c.09-2.1.18-4.27.45-6.35a5.74,5.74,0,0,1,4.8-5.14,76.14,76.14,0,0,1,9.81-1c2.66-.1,3.87-1.38,3.81-4-.06-3.17-.05-6.4,0-9.53,0-1.25,0-2.49,0-3.73,0-7.08-.63-7.74-7.52-7.88h-.3l-2,0c-8.78,0-15.33,1.29-21.24,4.17a24.27,24.27,0,0,0-13.42,16.22c-1.4,5.33-1.49,10.78-1.58,16,0,1.51-.06,3-.11,4.52a33.06,33.06,0,0,1-.42,5.54c-.15.81-.36,1.92-.67,5.09a16.41,16.41,0,0,1-5.95,11.64c-2.53,2.06-5.66,3.17-10.14,3.6-2.14.21-3.22,1.36-3.21,3.42.06,6,.06,12.34,0,18.85,0,2.72,1.78,3.25,3.13,3.41,9.8,1.17,15,6.44,16.18,16.59.29,2.36.46,3.49.57,4.21a27.72,27.72,0,0,1,.29,4.39l.12,3.41c.22,6.8.45,13.85,3,20.6,3,7.87,8.73,13.11,17.05,15.58l.59.15,12.56-28A6.88,6.88,0,0,1,351.73,585.62Z" transform="translate(-303.14 -460.28)" style="fill:#231f20"/><path d="M468.7,585.62a18.28,18.28,0,0,0,1-5.39,89.51,89.51,0,0,1,1-8.91c.3-1.81.6-3.68,1-8A28.93,28.93,0,0,1,478,547.63a70.28,70.28,0,0,1,6-6.28l1.65-1.59-.5-.35a33.14,33.14,0,0,1-13.51-22.56c-.15-1.09-.28-2-.41-2.81-.38-2.53-.63-4.19-.86-7.55a16.37,16.37,0,0,0-.34-3,17.34,17.34,0,0,1-.38-3.62c0-.62-.05-1.24-.08-1.86-.1-2.1-.19-4.27-.46-6.35a5.73,5.73,0,0,0-4.8-5.14,76,76,0,0,0-9.81-1c-2.65-.1-3.86-1.38-3.81-4,.06-3.17.05-6.4,0-9.53,0-1.25,0-2.49,0-3.73,0-7.08.63-7.74,7.52-7.88h.3l2,0c8.78,0,15.33,1.29,21.24,4.17a24.3,24.3,0,0,1,13.42,16.22c1.39,5.33,1.49,10.78,1.58,16,0,1.51.05,3,.1,4.52a32.4,32.4,0,0,0,.43,5.54c.15.81.35,1.92.66,5.09a16.48,16.48,0,0,0,5.95,11.64c2.54,2.06,5.66,3.17,10.14,3.6,2.15.21,3.23,1.36,3.21,3.42,0,6-.06,12.34,0,18.85,0,2.72-1.77,3.25-3.13,3.41-9.8,1.17-14.94,6.44-16.18,16.59-.29,2.36-.46,3.49-.56,4.21a28.47,28.47,0,0,0-.3,4.39l-.11,3.41c-.22,6.8-.45,13.85-3,20.6-3,7.87-8.73,13.11-17,15.58l-.59.15-12.57-28A6.86,6.86,0,0,0,468.7,585.62Z" transform="translate(-303.14 -460.28)" style="fill:#231f20"/><path d="M1501,575.55a24,24,0,0,0,24,24h67.84a24,24,0,1,0,0-48H1525A24,24,0,0,0,1501,575.55Z" transform="translate(-303.14 -460.28)" style="fill:#333132"/><path d="M1520.73,586.22a1.68,1.68,0,0,1-1.13-.3,1.28,1.28,0,0,1-.33-1v-2.35a1.32,1.32,0,0,1,.33-1,1.63,1.63,0,0,1,1.13-.31h1.41a1.68,1.68,0,0,1,1.16.31,1.32,1.32,0,0,1,.33,1v2.35a1.28,1.28,0,0,1-.33,1,1.74,1.74,0,0,1-1.16.3Z" transform="translate(-303.14 -460.28)" style="fill:#fff"/><path d="M1532.17,586.22a15,15,0,0,1-3.58-.36,5.2,5.2,0,0,1-2.29-1.14,4.31,4.31,0,0,1-1.22-2.07,11.74,11.74,0,0,1-.36-3.14v-2.09a12,12,0,0,1,.36-3.16,4.22,4.22,0,0,1,1.22-2.07,5.1,5.1,0,0,1,2.29-1.15,15,15,0,0,1,3.58-.36h11.24v3.67h-11.09a8.24,8.24,0,0,0-1.65.14,2.14,2.14,0,0,0-1,.51,1.89,1.89,0,0,0-.52,1,7.77,7.77,0,0,0-.14,1.58v1.84a7.25,7.25,0,0,0,.14,1.53,2,2,0,0,0,.52,1,2.07,2.07,0,0,0,1,.53,6.86,6.86,0,0,0,1.65.16h11.12v3.61Z" transform="translate(-303.14 -460.28)" style="fill:#fff"/><path d="M1552.42,586.22a15.06,15.06,0,0,1-3.59-.36,5.25,5.25,0,0,1-2.29-1.14,4.39,4.39,0,0,1-1.22-2.07,11.74,11.74,0,0,1-.36-3.14v-2.09a12,12,0,0,1,.36-3.16,4.29,4.29,0,0,1,1.22-2.07,5.16,5.16,0,0,1,2.29-1.15,15.06,15.06,0,0,1,3.59-.36h5.19a15.18,15.18,0,0,1,3.61.36,5.11,5.11,0,0,1,2.29,1.16,4.37,4.37,0,0,1,1.22,2.09,11.9,11.9,0,0,1,.36,3.16v2.06a11.74,11.74,0,0,1-.36,3.14,4.31,4.31,0,0,1-1.22,2.07,5.2,5.2,0,0,1-2.29,1.14,15.18,15.18,0,0,1-3.61.36Zm8.4-8.66a6.47,6.47,0,0,0-.16-1.6,1.81,1.81,0,0,0-.57-1,2.43,2.43,0,0,0-1.16-.49,11.07,11.07,0,0,0-1.9-.13h-4a10.82,10.82,0,0,0-1.88.13,2.35,2.35,0,0,0-1.14.49,1.89,1.89,0,0,0-.58,1,7,7,0,0,0-.16,1.6v1.84a6.84,6.84,0,0,0,.16,1.59,1.87,1.87,0,0,0,.58,1,2.36,2.36,0,0,0,1.14.5,9.7,9.7,0,0,0,1.88.15h4a9.93,9.93,0,0,0,1.9-.15,2.43,2.43,0,0,0,1.16-.5,1.79,1.79,0,0,0,.57-1,6.33,6.33,0,0,0,.16-1.59Z" transform="translate(-303.14 -460.28)" style="fill:#fff"/><path d="M1567.64,586.22a1.68,1.68,0,0,1-1.13-.3,1.28,1.28,0,0,1-.33-1v-2.35a1.32,1.32,0,0,1,.33-1,1.63,1.63,0,0,1,1.13-.31h1.41a1.68,1.68,0,0,1,1.16.31,1.32,1.32,0,0,1,.33,1v2.35a1.28,1.28,0,0,1-.33,1,1.74,1.74,0,0,1-1.16.3Z" transform="translate(-303.14 -460.28)" style="fill:#fff"/><path d="M1574,569.79a1.61,1.61,0,0,1-1.13-.31,1.35,1.35,0,0,1-.33-1v-1.66a1.28,1.28,0,0,1,.33-1,1.66,1.66,0,0,1,1.13-.3h1.41a1.74,1.74,0,0,1,1.16.3,1.28,1.28,0,0,1,.33,1v1.66a1.35,1.35,0,0,1-.33,1,1.68,1.68,0,0,1-1.16.31Zm-1.46,16.43V571.08h4.36v15.14Z" transform="translate(-303.14 -460.28)" style="fill:#fff"/><path d="M1586.14,586.22a15.3,15.3,0,0,1-3.63-.36,5.22,5.22,0,0,1-2.31-1.14,4.39,4.39,0,0,1-1.22-2.07,11.74,11.74,0,0,1-.36-3.14v-2.09a12,12,0,0,1,.36-3.16,4.29,4.29,0,0,1,1.22-2.07,5.13,5.13,0,0,1,2.31-1.15,15.3,15.3,0,0,1,3.63-.36h8.63v-5H1599v13.85a11.74,11.74,0,0,1-.36,3.14,4.31,4.31,0,0,1-1.22,2.07,5.25,5.25,0,0,1-2.29,1.14,15.21,15.21,0,0,1-3.62.36Zm-3.24-6.82a7.46,7.46,0,0,0,.15,1.66,1.8,1.8,0,0,0,.59,1,2.36,2.36,0,0,0,1.16.46,12.07,12.07,0,0,0,1.88.12h4.76a9.18,9.18,0,0,0,1.65-.13,2,2,0,0,0,1-.49,1.85,1.85,0,0,0,.51-1,6.94,6.94,0,0,0,.15-1.6v-5.07h-8.12a13.4,13.4,0,0,0-1.85.11,2.46,2.46,0,0,0-1.16.46,1.83,1.83,0,0,0-.59,1,7.4,7.4,0,0,0-.15,1.66Z" transform="translate(-303.14 -460.28)" style="fill:#fff"/></svg>